<svg xmlns="http://www.w3.org/2000/svg" xmlns:xlink="http://www.w3.org/1999/xlink" width="96.3" height="14" viewBox="0 0 96.3 14">
  <defs>
    <linearGradient id="linear-gradient" x1="0.5" x2="0.5" y2="1" gradientUnits="objectBoundingBox">
      <stop offset="0" stop-color="#ffa900"/>
      <stop offset="1" stop-color="red"/>
    </linearGradient>
  </defs>
  <g id="Group_6" data-name="Group 6" transform="translate(-18 24)">
    <rect id="Rectangle_8" data-name="Rectangle 8" width="80" height="14" rx="7" transform="translate(34.3 -24)" fill="#fff"/>
    <path id="Path_1" data-name="Path 1" d="M6,0A6,6,0,1,1,0,6,6,6,0,0,1,6,0Z" transform="translate(18 -23)" fill="url(#linear-gradient)"/>
    <g id="Group_5" data-name="Group 5" transform="translate(21.3 -23)">
      <path id="Polygon_1" data-name="Polygon 1" d="M2.5,0,5,6H0Z" transform="translate(5 10) rotate(180)" fill="#fff"/>
      <rect id="Rectangle_3" data-name="Rectangle 3" width="3" height="7" rx="1.5" transform="translate(1)" fill="#fff"/>
    </g>
    <path id="Subtraction_2" data-name="Subtraction 2" d="M2.018.9A2.85,2.85,0,0,1-.056,0H4.092A2.85,2.85,0,0,1,2.018.9Z" transform="translate(21.896 -12.725)" fill="#fff"/>
    <g id="Rectangle_12" data-name="Rectangle 12" transform="translate(22.3 -22)" fill="#e00" stroke="red" stroke-width="1">
      <rect width="3" height="1" stroke="none"/>
      <rect x="0.5" y="0.5" width="2" fill="none"/>
    </g>
    <g id="Rectangle_13" data-name="Rectangle 13" transform="translate(22.3 -20)" fill="#e00" stroke="red" stroke-width="1">
      <rect width="3" height="1" stroke="none"/>
      <rect x="0.5" y="0.5" width="2" fill="none"/>
    </g>
    <text id="yu_downloader" data-name="yu downloader" transform="translate(33.3 -14)" fill="#ff1c2b" stroke="red" stroke-width="1" font-size="12" font-family="Sitka Subheading"><tspan x="0" y="0">yu downloader</tspan></text>
  </g>
</svg>
