<svg xmlns="http://www.w3.org/2000/svg" xmlns:xlink="http://www.w3.org/1999/xlink" width="160" height="18" viewBox="0 0 160 18">
  <defs>
    <style>
      .cls-1 {
        fill: none;
      }

      .cls-2 {
        clip-path: url(#clip-path);
      }

      .cls-3 {
        fill: #fff;
      }

      .cls-4 {
        fill: url(#linear-gradient);
      }

      .cls-5 {
        fill: #e00;
      }

      .cls-5, .cls-6 {
        stroke: red;
      }

      .cls-6 {
        fill: #ff1c2b;
        font-size: 18px;
        font-family: Sitka Subheading;
      }

      .cls-7 {
        stroke: none;
      }
    </style>
    <clipPath id="clip-path">
      <rect class="cls-1" width="160" height="18"/>
    </clipPath>
    <linearGradient id="linear-gradient" x1="0.5" x2="0.5" y2="1" gradientUnits="objectBoundingBox">
      <stop offset="0" stop-color="#ffa900"/>
      <stop offset="1" stop-color="red"/>
    </linearGradient>
  </defs>
  <g id="Repeat_Grid_1" data-name="Repeat Grid 1" class="cls-2">
    <g transform="translate(-17 26)">
      <rect id="Rectangle_8" data-name="Rectangle 8" class="cls-3" width="160" height="18" rx="9" transform="translate(17 -26)"/>
      <path id="Path_1" data-name="Path 1" class="cls-4" d="M9,0A9,9,0,1,1,0,9,9,9,0,0,1,9,0Z" transform="translate(17 -26)"/>
      <g id="Group_5" data-name="Group 5" transform="translate(23 -24)">
        <path id="Polygon_1" data-name="Polygon 1" class="cls-3" d="M3,0,6,6H0Z" transform="translate(6 12) rotate(180)"/>
        <rect id="Rectangle_3" data-name="Rectangle 3" class="cls-3" width="4" height="8" rx="2" transform="translate(1)"/>
      </g>
      <path id="Subtraction_2" data-name="Subtraction 2" class="cls-3" d="M10.977,41.7A5.708,5.708,0,0,1,6.9,40h8.162A5.708,5.708,0,0,1,10.977,41.7Z" transform="translate(15 -51)"/>
      <g id="Rectangle_12" data-name="Rectangle 12" class="cls-5" transform="translate(24 -23)">
        <rect class="cls-7" width="4" height="1"/>
        <rect class="cls-1" x="0.5" y="0.5" width="3"/>
      </g>
      <g id="Rectangle_13" data-name="Rectangle 13" class="cls-5" transform="translate(24 -21)">
        <rect class="cls-7" width="4" height="1"/>
        <rect class="cls-1" x="0.5" y="0.5" width="3"/>
      </g>
      <text id="yu_downloader" data-name="yu downloader" class="cls-6" transform="translate(45 -12)"><tspan x="0" y="0">yu downloader</tspan></text>
    </g>
  </g>
</svg>
